<svg id="Layer_1" data-name="Layer 1" xmlns="http://www.w3.org/2000/svg" viewBox="-6 -6 134 134"><title>date-31</title><path stroke="#318CCC" fill="#318CCC" stroke-width="5%" d="M81.6,4.73C81.6,2.12,84.18,0,87.37,0s5.77,2.12,5.77,4.73V25.45c0,2.61-2.58,4.73-5.77,4.73s-5.77-2.12-5.77-4.73V4.73ZM29.61,4.73C29.61,2.12,32.19,0,35.38,0s5.77,2.12,5.77,4.73V25.45c0,2.61-2.58,4.73-5.77,4.73s-5.77-2.12-5.77-4.73V4.73ZM6.4,38.76H116.46V21.47a3,3,0,0,0-.86-2.07,2.92,2.92,0,0,0-2.07-.86H103a3.2,3.2,0,1,1,0-6.4h10.55a9.36,9.36,0,0,1,9.33,9.33v92.08a9.36,9.36,0,0,1-9.33,9.33H9.33A9.36,9.36,0,0,1,0,113.54V21.47a9.36,9.36,0,0,1,9.33-9.33H20.6a3.2,3.2,0,1,1,0,6.4H9.33a3,3,0,0,0-2.07.86,2.92,2.92,0,0,0-.86,2.07V38.76Zm110.07,6.41H6.4v68.37a3,3,0,0,0,.86,2.07,2.92,2.92,0,0,0,2.07.86H113.54a3,3,0,0,0,2.07-.86,2.92,2.92,0,0,0,.86-2.07V45.17Zm-66-26.63a3.2,3.2,0,0,1,0-6.4H71.91a3.2,3.2,0,1,1,0,6.4Z"/>
<path stroke="#318CCC" fill="#318CCC" stroke-width="1" d="M52,103.78q-4.83,0-9.36-.42a82.2,82.2,0,0,1-8.38-1.21V92.74H47.44a20.16,20.16,0,0,0,3.65-.25,3.15,3.15,0,0,0,1.78-.78,2.19,2.19,0,0,0,.48-1.51V89.06a2.67,2.67,0,0,0-.54-1.75,3.21,3.21,0,0,0-1.57-1,9.61,9.61,0,0,0-2.53-.39L38,85.43V76.38l10.19-.66A10.68,10.68,0,0,0,51.72,75a2,2,0,0,0,1.15-1.93v-.55a2.64,2.64,0,0,0-1.21-2.47,9.53,9.53,0,0,0-4.46-.72H34.89V59.91q3.91-.66,8.27-1.23a54.75,54.75,0,0,1,8.8-.46,17.18,17.18,0,0,1,6.67,1.3A9.31,9.31,0,0,1,63,63.26a12.23,12.23,0,0,1,1.5,6.37v3a13.75,13.75,0,0,1-.27,2.81,8,8,0,0,1-.87,2.35,6.43,6.43,0,0,1-1.57,1.84,7.47,7.47,0,0,1-2.36,1.27,6.31,6.31,0,0,1,2.51,1.36,8,8,0,0,1,1.75,2.2,11.32,11.32,0,0,1,1.06,2.87,15.41,15.41,0,0,1,.36,3.4v1.75q0,5.49-3.47,8.39T52,103.78Zm24.85-.37V69.33H69.76V61.84l8.45-3.62H88.59v45.19Z"/></svg>